<svg width="72" height="72" viewBox="0 0 72 72" fill="none" xmlns="http://www.w3.org/2000/svg">
    <rect width="40" height="9" rx="4.5" transform="matrix(-0.900573 -0.434704 -0.434704 0.900573 55.7543 48.7974)" fill="#7A6144" />
    <circle r="4.5" transform="matrix(-0.987274 -0.159031 -0.159031 0.987274 49.8374 50.9458)" fill="#A89075" />
    <rect x="19" y="45.9058" width="38.1387" height="8.58121" rx="4.2906" transform="rotate(-16.6158 19 45.9058)" fill="#64523D" />
    <circle cx="24.2441" cy="48.8255" r="4.2906" fill="#8A7359" />
    <rect x="12" y="39.4382" width="40" height="9" rx="4.5" transform="rotate(-16.6158 12 39.4382)" fill="#7A6144" />
    <circle cx="17.5" cy="42.5002" r="4.5" fill="#A89075" />
    <path d="M23.7458 28.4433C23.7458 25.1324 20.3816 39.2072 27.9433 43.7636C34.1216 46.6586 38.9637 48.5032 46.8032 40.8943C53.4898 32.8242 42.7397 15.8163 43.1574 18.0948C43.5751 20.3733 43.8057 23.1401 43.5751 25.2153C43.3446 27.2905 41.6406 29.9172 41.2694 25.2153C40.5777 16.4535 36.1968 7 36.1968 7C36.1968 7 36.1968 23.8319 32.7382 23.8319C30.2019 23.8319 31.8159 14.6089 31.8159 14.6089C31.8159 14.6089 25.3599 22.4484 27.2044 29.5962C29.049 36.744 23.7458 31.7542 23.7458 28.4433Z" fill="#FF9877" />
    <path d="M28.3052 35.1299C28.0746 32.8241 26.1388 41.8747 33.303 43.9792C36.1447 44.814 38.5026 44.5834 40.5256 43.4305C44.728 40.4331 42.8313 31.6713 42.8313 31.6713C42.8313 31.6713 41.2173 37.9367 38.5754 36.725C35.453 35.2928 36.6058 25.4458 36.6058 25.4458C36.6058 25.4458 30.9852 30.7109 32.6861 36.2827C34.387 41.8546 28.5358 37.4356 28.3052 35.1299Z" fill="#FFE99D" />
</svg>
