<?xml version="1.0" encoding="UTF-8" standalone="no"?>
<svg
   width="72"
   height="72"
   viewBox="0 0 72 72"
   fill="none"
   version="1.1"
   id="svg16"
   sodipodi:docname="nuotio_active.svg"
   inkscape:version="1.1.2 (b8e25be833, 2022-02-05)"
   xmlns:inkscape="http://www.inkscape.org/namespaces/inkscape"
   xmlns:sodipodi="http://sodipodi.sourceforge.net/DTD/sodipodi-0.dtd"
   xmlns="http://www.w3.org/2000/svg"
   xmlns:svg="http://www.w3.org/2000/svg">
  <defs
     id="defs20" />
  <sodipodi:namedview
     id="namedview18"
     pagecolor="#ffffff"
     bordercolor="#666666"
     borderopacity="1.0"
     inkscape:pageshadow="2"
     inkscape:pageopacity="0.0"
     inkscape:pagecheckerboard="0"
     showgrid="false"
     showguides="true"
     inkscape:guide-bbox="true"
     inkscape:zoom="8.5736697"
     inkscape:cx="34.699261"
     inkscape:cy="40.82266"
     inkscape:window-width="2560"
     inkscape:window-height="1377"
     inkscape:window-x="-8"
     inkscape:window-y="-8"
     inkscape:window-maximized="1"
     inkscape:current-layer="svg16">
    <sodipodi:guide
       position="70.350515,64.989691"
       orientation="0,-1"
       id="guide305" />
  </sodipodi:namedview>
  <circle
     cx="36"
     cy="36"
     r="36"
     fill="#242D2D"
     id="circle2" />
  <g
     id="g174"
     transform="translate(-1.0000018)">
    <rect
       width="39.999985"
       height="8.9999971"
       rx="4.4999986"
       transform="matrix(-0.90057332,-0.43470415,-0.43470415,0.90057332,0,0)"
       fill="#7a6144"
       id="rect6"
       x="-71.423264"
       y="19.709009" />
    <circle
       r="4.5000019"
       transform="matrix(-0.9872736,-0.15903094,-0.15903094,0.9872736,0,0)"
       fill="#a89075"
       id="circle8"
       cx="-57.305099"
       cy="42.371754" />
    <rect
       x="5.0797467"
       y="49.422047"
       width="38.138699"
       height="8.5812101"
       rx="4.2905998"
       transform="rotate(-16.6158)"
       fill="#64523d"
       id="rect10" />
    <circle
       cx="24.244102"
       cy="48.8255"
       r="4.2905998"
       fill="#8a7359"
       id="circle12" />
    <rect
       x="0.22146864"
       y="41.222843"
       width="40"
       height="9"
       rx="4.5"
       transform="rotate(-16.6158)"
       fill="#7a6144"
       id="rect14" />
    <circle
       cx="17.5"
       cy="42.500198"
       r="4.5"
       fill="#a89075"
       id="circle16" />
    <path
       d="m 23.7458,28.4433 c 0,-3.3109 -3.3642,10.7639 4.1975,15.3203 6.1783,2.895 11.0204,4.7396 18.8599,-2.8693 6.6866,-8.0701 -4.0635,-25.078 -3.6458,-22.7995 0.4177,2.2785 0.6483,5.0453 0.4177,7.1205 -0.2305,2.0752 -1.9345,4.7019 -2.3057,0 C 40.5777,16.4535 36.1968,7 36.1968,7 c 0,0 0,16.8319 -3.4586,16.8319 -2.5363,0 -0.9223,-9.223 -0.9223,-9.223 0,0 -6.456,7.8395 -4.6115,14.9873 1.8446,7.1478 -3.4586,2.158 -3.4586,-1.1529 z"
       fill="#ff9877"
       id="path18" />
    <path
       d="m 28.3052,35.1299 c -0.2306,-2.3058 -2.1664,6.7448 4.9978,8.8493 2.8417,0.8348 5.1996,0.6042 7.2226,-0.5487 4.2024,-2.9974 2.3057,-11.7592 2.3057,-11.7592 0,0 -1.614,6.2654 -4.2559,5.0537 -3.1224,-1.4322 -1.9696,-11.2792 -1.9696,-11.2792 0,0 -5.6206,5.2651 -3.9197,10.8369 1.7009,5.5719 -4.1503,1.1529 -4.3809,-1.1528 z"
       fill="#ffe99d"
       id="path20" />
  </g>
</svg>
