<?xml version="1.0" encoding="UTF-8" standalone="no"?>
<svg
   width="185.98199"
   height="243.181"
   viewBox="0 0 185.98199 243.181"
   fill="none"
   version="1.1"
   id="svg75"
   sodipodi:docname="nuotio_category_end.svg"
   inkscape:version="1.1.2 (b8e25be833, 2022-02-05)"
   xmlns:inkscape="http://www.inkscape.org/namespaces/inkscape"
   xmlns:sodipodi="http://sodipodi.sourceforge.net/DTD/sodipodi-0.dtd"
   xmlns="http://www.w3.org/2000/svg"
   xmlns:svg="http://www.w3.org/2000/svg">
  <sodipodi:namedview
     id="namedview77"
     pagecolor="#000000"
     bordercolor="#666666"
     borderopacity="1.0"
     inkscape:pageshadow="2"
     inkscape:pageopacity="0"
     inkscape:pagecheckerboard="true"
     showgrid="false"
     fit-margin-top="0"
     fit-margin-left="0"
     fit-margin-right="0"
     fit-margin-bottom="0"
     inkscape:zoom="5.1869385"
     inkscape:cx="106.32476"
     inkscape:cy="116.83192"
     inkscape:window-width="2560"
     inkscape:window-height="1377"
     inkscape:window-x="-8"
     inkscape:window-y="-8"
     inkscape:window-maximized="1"
     inkscape:current-layer="g56" />
  <ellipse
     cx="50.952637"
     cy="76.5"
     rx="3"
     ry="2.5"
     fill="#e0d682"
     fill-opacity="0.2"
     id="ellipse2" />
  <ellipse
     rx="3.5"
     ry="3"
     transform="scale(-1,1)"
     fill="#e0d682"
     fill-opacity="0.2"
     id="ellipse4"
     cx="-115.45264"
     cy="21" />
  <ellipse
     rx="3.5"
     ry="3"
     transform="scale(-1,1)"
     fill="#e0d682"
     fill-opacity="0.2"
     id="ellipse6"
     cx="-110.45264"
     cy="106" />
  <ellipse
     cx="42.952637"
     cy="91.5"
     rx="2"
     ry="1.5"
     fill="#e0d682"
     fill-opacity="0.08"
     id="ellipse8" />
  <circle
     transform="scale(-1,1)"
     fill="#e0d682"
     fill-opacity="0.08"
     id="circle10"
     cx="-124.95264"
     cy="38"
     r="2" />
  <circle
     transform="scale(-1,1)"
     fill="#e0d682"
     fill-opacity="0.08"
     id="circle12"
     cx="-119.95264"
     cy="123"
     r="2" />
  <circle
     cx="70.952637"
     cy="62"
     fill="#e0d682"
     fill-opacity="0.06"
     id="circle14"
     r="4" />
  <circle
     r="4.5"
     transform="scale(-1,1)"
     fill="#e0d682"
     fill-opacity="0.06"
     id="circle16"
     cx="-93.452637"
     cy="4.5" />
  <circle
     r="4.5"
     transform="scale(-1,1)"
     fill="#e0d682"
     fill-opacity="0.06"
     id="circle18"
     cx="-88.452637"
     cy="89.5" />
  <ellipse
     cx="79.452637"
     cy="106"
     rx="1.5"
     ry="2"
     fill="#e0d682"
     fill-opacity="0.05"
     id="ellipse20" />
  <ellipse
     rx="1.5"
     ry="2"
     transform="scale(-1,1)"
     fill="#e0d682"
     fill-opacity="0.05"
     id="ellipse22"
     cx="-83.452637"
     cy="54" />
  <circle
     cx="53.952637"
     cy="106"
     fill="#ffb6b1"
     fill-opacity="0.05"
     id="circle24"
     r="6" />
  <ellipse
     rx="6.5"
     ry="7"
     transform="scale(-1,1)"
     fill="#ffb6b1"
     fill-opacity="0.05"
     id="ellipse26"
     cx="-112.45264"
     cy="54" />
  <ellipse
     rx="6.5"
     ry="7"
     transform="scale(-1,1)"
     fill="#ffb6b1"
     fill-opacity="0.05"
     id="ellipse28"
     cx="-107.45264"
     cy="139" />
  <circle
     cx="61.452637"
     cy="125.5"
     fill="#ffb6b1"
     fill-opacity="0.05"
     id="circle30"
     r="2.5" />
  <circle
     transform="scale(-1,1)"
     fill="#ffb6b1"
     fill-opacity="0.05"
     id="circle32"
     cx="-103.95264"
     cy="76"
     r="3" />
  <circle
     cx="60.452637"
     cy="84.5"
     fill="#f3f3d2"
     fill-opacity="0.1"
     id="circle34"
     r="1.5" />
  <circle
     transform="scale(-1,1)"
     fill="#f3f3d2"
     fill-opacity="0.1"
     id="circle36"
     cx="-104.95264"
     cy="30"
     r="2" />
  <circle
     transform="scale(-1,1)"
     fill="#f3f3d2"
     fill-opacity="0.1"
     id="circle38"
     cx="-99.952637"
     cy="115"
     r="2" />
  <g
     filter="url(#filter0_d_6518_5186)"
     id="g56"
     transform="translate(-0.0473633)">
    <rect
       width="81.889198"
       height="18.4251"
       rx="9.2125397"
       transform="matrix(-0.900573,-0.434704,-0.434704,0.900573,127.575,181.569)"
       fill="#7a6144"
       id="rect40"
       x="0"
       y="0" />
    <circle
       r="9.2125397"
       transform="matrix(-0.987274,-0.159031,-0.159031,0.987274,115.462,185.967)"
       fill="#a89075"
       id="circle42"
       cx="0"
       cy="0" />
    <rect
       x="52.330601"
       y="175.649"
       width="78.078697"
       height="17.567699"
       rx="8.7838602"
       transform="rotate(-16.6158,52.3306,175.649)"
       fill="#64523d"
       id="rect44" />
    <circle
       cx="63.066601"
       cy="181.62601"
       r="8.7838602"
       fill="#8a7359"
       id="circle46" />
    <rect
       x="38"
       y="162.408"
       width="81.889198"
       height="18.4251"
       rx="9.2125397"
       transform="rotate(-16.6158,38,162.408)"
       fill="#7a6144"
       id="rect48" />
    <circle
       cx="49.259899"
       cy="168.677"
       r="9.2125397"
       fill="#a89075"
       id="circle50" />
    <path
       d="m 62.0464,139.899 c 0,-6.778 -6.8873,22.037 8.5933,31.365 12.6484,5.926 22.5612,9.703 38.6103,-5.875 13.689,-16.521 -8.319,-51.34 -7.464,-46.675 0.856,4.664 1.328,10.329 0.856,14.577 -0.472,4.248 -3.9608,9.626 -4.7208,0 C 96.5051,115.354 87.5364,96 87.5364,96 c 0,0 0,34.459 -7.0805,34.459 -5.1924,0 -1.8882,-18.882 -1.8882,-18.882 0,0 -13.217,16.049 -9.4407,30.683 3.7763,14.633 -7.0806,4.418 -7.0806,-2.361 z"
       fill="#ff9877"
       id="path52" />
    <path
       d="m 71.3803,153.588 c -0.472,-4.72 -4.4351,13.808 10.2316,18.117 5.8177,1.709 10.6448,1.237 14.7864,-1.123 8.6037,-6.137 4.7207,-24.074 4.7207,-24.074 0,0 -3.3046,12.827 -8.7131,10.346 -6.3924,-2.932 -4.0323,-23.091 -4.0323,-23.091 0,0 -11.5067,10.779 -8.0246,22.186 3.4821,11.406 -8.4966,2.36 -8.9687,-2.361 z"
       fill="#ffe99d"
       id="path54" />
  </g>
  <defs
     id="defs73">
    <filter
       id="filter0_d_6518_5186"
       x="0.0473633"
       y="48"
       width="185.98199"
       height="195.181"
       filterUnits="userSpaceOnUse"
       color-interpolation-filters="sRGB">
      <feFlood
         flood-opacity="0"
         result="BackgroundImageFix"
         id="feFlood58" />
      <feColorMatrix
         in="SourceAlpha"
         type="matrix"
         values="0 0 0 0 0 0 0 0 0 0 0 0 0 0 0 0 0 0 127 0"
         result="hardAlpha"
         id="feColorMatrix60" />
      <feOffset
         dx="8"
         id="feOffset62" />
      <feGaussianBlur
         stdDeviation="24"
         id="feGaussianBlur64" />
      <feColorMatrix
         type="matrix"
         values="0 0 0 0 1 0 0 0 0 0.906554 0 0 0 0 0.5625 0 0 0 0.25 0"
         id="feColorMatrix66" />
      <feBlend
         mode="normal"
         in2="BackgroundImageFix"
         result="effect1_dropShadow_6518_5186"
         id="feBlend68" />
      <feBlend
         mode="normal"
         in="SourceGraphic"
         in2="effect1_dropShadow_6518_5186"
         result="shape"
         id="feBlend70" />
    </filter>
  </defs>
</svg>
